G04*
G04 Format:               Gerber RS-274X*
G04 Export Settings:      (custom)*
G04 Layer:                BottomCopper*
G04 This File Name:       EP00012232.bot*
G04 Source File Name:     EP00012232.rrb*
G04 Part Number:          KIM1KEYBOARD*
G04 Revision:             1*
G04 Unique ID:            0454f806-1144-4a33-8ea9-d41686c09063*
G04 Generated Date:       Monday, 06 January 2020 11:52:52*
G04*
G04 Created Using:        ExpressPCB Plus v2.0.0*
G04 Software Contact:     http://www.expresspcb.com/support*
G04 License Number:       1104*
G04*
G04 Zero Suppression:     Leading*
G04 Number Precision:     2.4*
G04*
%FSLAX24Y24*%
%MOIN*%
%LNBottomCopper*%
%ADD10C,.0118*%
%ADD11C,.012*%
%ADD12C,.025*%
%ADD13C,.026*%
%ADD14C,.037*%
%ADD15C,.056*%
%ADD16C,.065*%
%ADD17C,.0682*%
%ADD18C,.075*%
%ADD19C,.08*%
%ADD20C,.1455*%
%ADD21C,.1575*%
%ADD22R,.007X.007*%
%ADD23R,.065X.065*%
%AMTHERMAL*7,0,0,$1,$1-$2-$2,$2,0*%
%ADD24THERMAL,.104X.012*%
%ADD25THERMAL,.1815X.012*%
D10*
G01X10000Y17500D02*
Y16750D01*
X9750Y16500D01*
X8000Y19500D02*
X4250D01*
X4000Y19250D01*
Y17500D01*
X8000Y19500D02*
X9000Y18250D01*
Y17500D02*
Y18250D01*
X10000Y19500D01*
X13000D01*
X14000Y18250D01*
Y17500D01*
Y18250D02*
X15000Y19500D01*
X18000D01*
X19000Y18250D01*
Y17500D01*
Y18250D02*
X20000Y19500D01*
X24000D01*
X25000Y18250D01*
Y17500D01*
Y18250D02*
X26000Y19500D01*
X29000D01*
X30000Y18250D01*
Y17500D01*
X10000Y16750D02*
X10250Y16500D01*
X14750D01*
X15000Y16750D01*
X15250Y16500D01*
X19750D01*
X20000Y16750D01*
X20250Y16500D01*
X15000Y16750D02*
Y17500D01*
X20000Y16750D02*
Y17500D01*
X20250Y16500D02*
X21750D01*
X25750D02*
X26000Y16750D01*
X26250Y16500D01*
X30750D01*
X31000Y16750D01*
Y17500D01*
X26000Y16750D02*
Y17500D01*
X5000Y23500D02*
Y22750D01*
X5250Y22500D01*
X9750D01*
X10000Y22750D01*
Y23500D01*
X7000Y24250D02*
X7250Y24500D01*
X11750D01*
X12000Y24250D01*
X10000Y22750D02*
X10250Y22500D01*
X14750D01*
X15000Y22750D01*
Y23500D01*
Y22750D02*
X15250Y22500D01*
X19750D01*
X20000Y22750D01*
Y23500D01*
Y22750D02*
X20250Y22500D01*
X25750D01*
X26000Y22750D01*
Y23500D01*
Y22750D02*
X26250Y22500D01*
X30750D01*
X31000Y22750D01*
Y23500D01*
X12000Y24250D02*
X12250Y24500D01*
X7000Y24250D02*
Y23500D01*
X12000Y24250D02*
Y23500D01*
X12250Y24500D02*
X16750D01*
X17000Y24250D01*
Y23500D01*
Y24250D02*
X17250Y24500D01*
X21750D01*
X22000Y24250D01*
Y23500D01*
Y24250D02*
X22250Y24500D01*
X27750D01*
X28000Y24250D01*
Y23500D01*
Y24250D02*
X28250Y24500D01*
X32750D01*
X33000Y24250D01*
Y23500D01*
X9750Y16500D02*
X5250D01*
X5000Y16750D01*
Y17500D01*
X31000Y22750D02*
X31250Y22500D01*
X35000D01*
X35250Y22250D01*
Y16750D01*
X35000Y16500D01*
X32000D01*
X31750Y16250D01*
Y15500D01*
X22000D02*
Y16250D01*
X21750Y16500D01*
X25750D01*
X7000Y24250D02*
X6750Y24500D01*
X2750D01*
X2500Y24250D01*
Y15500D01*
D11*
X11000Y17500D02*
Y19000D01*
X16000Y17500D02*
Y19000D01*
X21000Y17500D02*
Y19000D01*
X27000Y17500D02*
Y19000D01*
X32000Y17500D02*
Y19000D01*
X36250D02*
X36500Y18750D01*
Y5250D01*
X36250Y5000D01*
X35750Y19500D02*
X36750D01*
X37000Y19250D01*
Y4500D01*
X36750Y4250D01*
X35750D01*
Y19000D02*
X36250D01*
X34000Y3750D02*
X37250D01*
X37500Y4000D01*
Y19750D01*
X37250Y20000D01*
X35750D02*
X37250D01*
X11000Y15500D02*
X11500Y15000D01*
Y11250D01*
X10500Y14500D02*
Y11250D01*
X9500D02*
Y14000D01*
X1000Y18500D02*
Y14750D01*
X2000Y13750D01*
X1500Y19000D02*
Y15000D01*
X2000Y19750D02*
Y15000D01*
X2250Y14750D01*
X5000D01*
X5250Y14500D01*
Y13250D01*
X5500Y13000D01*
X8250D01*
X8500Y12750D01*
Y10750D01*
X8750Y10500D01*
X1500Y15000D02*
X2250Y14250D01*
X4500D01*
X4750Y14000D01*
Y13000D01*
X5250Y12500D01*
X7750D01*
X8000Y12250D01*
Y10500D01*
X8500Y10000D01*
X24500D01*
X2000Y13750D02*
X4000D01*
X4250Y13500D01*
Y12750D01*
X5000Y12000D01*
X7250D01*
X7500Y11750D01*
Y10250D01*
X8250Y9500D01*
X24000D02*
X8250D01*
X8750Y10500D02*
X25250D01*
X25500Y10250D01*
Y9250D01*
X24500Y10000D02*
X24750Y9750D01*
Y9000D01*
X25000Y8750D01*
X26000D01*
X24000Y9500D02*
X24250Y9250D01*
Y8500D01*
X24500Y8250D01*
X26500D01*
X17500Y9000D02*
X14500D01*
X8000D01*
X7750Y9250D01*
X5500D01*
X18000Y8500D02*
X8500D01*
X8250Y8250D01*
Y3000D01*
X29500Y3250D02*
Y2750D01*
X8250Y3000D02*
X7500Y2000D01*
X30500Y3250D02*
X32250D01*
X28500D02*
Y1500D01*
X27500Y3250D02*
Y1500D01*
X29500Y2750D02*
X29750Y2500D01*
X31500Y2250D02*
Y1500D01*
X32250Y3250D02*
X32500Y3000D01*
Y1500D01*
X29750Y2500D02*
X31250D01*
X31500Y2250D01*
X13500Y6250D02*
X23500D01*
X14500Y6750D02*
X24500D01*
X25500Y3250D02*
X22500D01*
X26500D02*
Y2750D01*
X26250Y2500D01*
X23000D01*
X15500Y3250D02*
X14500Y1500D01*
X16500Y3250D02*
X15500Y1500D01*
X17500Y3250D02*
X16500Y1500D01*
X18500Y3250D02*
X17500Y1500D01*
X19500Y3250D02*
X18500Y1500D01*
X20500Y3250D02*
X19500Y1500D01*
X21500Y3250D02*
X20500Y1500D01*
X22500Y3250D02*
X21500Y1500D01*
X23000Y2500D02*
X22500Y1500D01*
X19500Y14000D02*
X21500D01*
X22000Y14500D01*
X25250D01*
X25500Y14750D01*
Y15500D01*
X28500Y14500D02*
X35000D01*
X35250Y15500D02*
Y14750D01*
X35000Y14500D01*
D12*
X35000Y7500D02*
X33500D01*
X32000D01*
X30500D01*
X29000D01*
X27500D01*
X2750Y6500D02*
X5250D01*
X5500Y6250D01*
Y4750D01*
X6500Y4250D01*
Y2000D01*
X1628Y10112D02*
X2500Y9250D01*
Y6250D01*
X1599Y5125D01*
X2500Y6250D02*
X2750Y6500D01*
X27500Y7500D02*
X10000D01*
X30500Y1500D02*
Y750D01*
X30250Y500D01*
X26000D01*
X26500Y1000D01*
X26000Y500D02*
X7750D01*
X6500Y2000D01*
X33500Y1500D02*
Y7500D01*
X26500Y1000D02*
Y1500D01*
D13*
X11000Y19000D03*
X16000D03*
X21000D03*
X27000D03*
X36250Y5000D03*
X35750Y19500D03*
Y4250D03*
X32000Y19000D03*
X35750D03*
X34000Y3750D03*
X35750Y20000D03*
X10500Y14500D03*
X9500Y14000D03*
X1000Y18500D03*
X1500Y19000D03*
X2000Y19750D03*
X25500Y9250D03*
X26000Y8750D03*
X26500Y8250D03*
X17500Y9000D03*
X18000Y8500D03*
X13500Y6250D03*
X14500Y6750D03*
X24500D03*
X23500Y6250D03*
X19500Y14000D03*
X28500Y14500D03*
D14*
X29000Y7500D03*
X30500D03*
X32000D03*
X33500D03*
X35000D03*
X27500D03*
X10000D03*
D15*
X6000Y15500D03*
X2500D03*
X7500D03*
X11000D03*
X12250D03*
X15750D03*
X22000D03*
X25500D03*
X17250D03*
X20750D03*
X31750D03*
X35250D03*
X26750D03*
X30250D03*
X5500Y9250D03*
Y8250D03*
D16*
X5000Y23500D03*
X4000D03*
X6000D03*
X7000D03*
X8000D03*
X5000Y17500D03*
X4000D03*
X6000D03*
X7000D03*
X8000D03*
X10000Y23500D03*
X9000D03*
X11000D03*
X12000D03*
X13000D03*
X10000Y17500D03*
X9000D03*
X11000D03*
X12000D03*
X13000D03*
X15000Y23500D03*
X14000D03*
X16000D03*
X17000D03*
X18000D03*
X15000Y17500D03*
X14000D03*
X16000D03*
X17000D03*
X18000D03*
X20000Y23500D03*
X19000D03*
X21000D03*
X22000D03*
X23000D03*
X20000Y17500D03*
X19000D03*
X21000D03*
X22000D03*
X23000D03*
X26000Y23500D03*
X25000D03*
X27000D03*
X28000D03*
X29000D03*
X26000Y17500D03*
X25000D03*
X27000D03*
X28000D03*
X29000D03*
X31000Y23500D03*
X30000D03*
X32000D03*
X33000D03*
X34000D03*
X31000Y17500D03*
X30000D03*
X32000D03*
X33000D03*
X34000D03*
X6500Y10750D03*
D17*
X644Y12081D03*
X1628D03*
X3596Y10112D03*
X1628Y8144D03*
X644D03*
D18*
X9500Y11250D03*
X10500D03*
X11500D03*
X12500D03*
X13500D03*
X14500D03*
X12500Y3250D03*
X13500D03*
X14500D03*
X15500D03*
X16500D03*
X17500D03*
X18500D03*
X19500D03*
X20500D03*
X21500D03*
X25500D03*
X26500D03*
X27500D03*
X28500D03*
X29500D03*
X30500D03*
X35500Y11250D03*
X34500D03*
X33500D03*
X32500D03*
X31500D03*
X30500D03*
X29500D03*
X28500D03*
X5500Y2000D03*
X32500Y1500D03*
X33500D03*
X26500D03*
X27500D03*
X28500D03*
X31500D03*
X30500D03*
X6500Y2000D03*
X7500D03*
X6500Y5250D03*
Y4250D03*
X16500Y1500D03*
X17500D03*
X18500D03*
X19500D03*
X20500D03*
X21500D03*
X22500D03*
X23500D03*
X24500D03*
X15500D03*
X14500D03*
D19*
X3596Y11096D03*
Y9128D03*
Y8144D03*
Y12081D03*
X1628Y10112D03*
D20*
X1000Y24000D03*
X37000D03*
Y1000D03*
X1000D03*
D21*
X1599Y5125D03*
X3961D03*
X2780Y3275D03*
D23*
X5500Y10750D03*
X7250Y7500D03*
M02*
